<!-- icon666.com - MILLIONS vector ICONS FREE --><svg version="1.1" id="Capa_1" xmlns="http://www.w3.org/2000/svg" xmlns:xlink="http://www.w3.org/1999/xlink" x="0px" y="0px" viewBox="0 0 512 512" style="enable-background:new 0 0 512 512;" xml:space="preserve"><g><g><path d="M504.5,44.088H71.629c-4.143,0-7.5,3.358-7.5,7.5v24.565h-32.58C14.152,76.153,0,90.305,0,107.702v328.661 c0,17.396,14.152,31.549,31.549,31.549h432.87c17.396,0,31.549-14.153,31.549-31.549v-56.629h8.532c4.143,0,7.5-3.358,7.5-7.5 V51.588C512,47.447,508.643,44.088,504.5,44.088z M480.968,436.362c0,9.125-7.424,16.549-16.549,16.549H31.549 c-9.125,0-16.549-7.424-16.549-16.549V107.702c0-9.125,7.424-16.548,16.549-16.548h110.28c4.421,0,8.576,1.721,11.701,4.847 l25.993,25.993c5.959,5.959,13.882,9.24,22.309,9.24h64.129c4.143,0,7.5-3.358,7.5-7.5c0-4.142-3.357-7.5-7.5-7.5 c-4.42,0-8.575-1.721-11.701-4.847l-20.233-20.234h36.061c4.421,0,8.576,1.721,11.701,4.847l20.234,20.234h-5.945 c-4.143,0-7.5,3.358-7.5,7.5c0,4.142,3.357,7.5,7.5,7.5h136.277c9.125,0,16.549,7.424,16.549,16.548v280.564 c0,4.142,3.357,7.5,7.5,7.5s7.5-3.358,7.5-7.5v-48.613h17.064V436.362z M169.898,91.153h36.06c4.421,0,8.576,1.721,11.701,4.847 l20.234,20.234h-36.061c-4.421,0-8.576-1.721-11.701-4.847L169.898,91.153z M497,364.734h-33.097V147.781 c0-17.396-14.152-31.548-31.549-31.548H330.09c-4.42,0-8.575-1.721-11.701-4.847l-25.993-25.993 c-5.959-5.959-13.881-9.24-22.309-9.24H79.129V59.088H497V364.734z"></path></g></g><g><g><path d="M231.951,164.33H71.629c-12.976,0-23.532,10.556-23.532,23.532v152.307c0,12.976,10.557,23.532,23.532,23.532h160.322 c12.976,0,23.532-10.556,23.532-23.532V187.862C255.483,174.886,244.927,164.33,231.951,164.33z M199.37,179.33h32.58 c4.706,0.001,8.533,3.828,8.533,8.533v8.532h-40.597c-0.284,0-0.516-0.231-0.516-0.516V179.33z M240.484,236.476h-50.362 c-3.139-9.308-11.946-16.032-22.3-16.032c-12.976,0-23.532,10.557-23.532,23.532c0,12.975,10.557,23.532,23.532,23.532 c10.354,0,19.16-6.724,22.3-16.032h50.362v25.081h-8.532c-6.285,0-12.194,2.448-16.64,6.893l-14.656,14.657 c-1.612,1.612-3.755,2.499-6.033,2.499h-4.5c-3.139-9.308-11.946-16.032-22.3-16.032c-12.976,0-23.532,10.556-23.532,23.532 s10.557,23.532,23.532,23.532c10.354,0,19.16-6.724,22.3-16.032h4.5c6.285,0,12.194-2.448,16.64-6.892l14.656-14.657 c1.612-1.612,3.755-2.499,6.033-2.499h8.532v48.613c-0.001,4.703-3.828,8.531-8.533,8.531h-93.086l-25.172-25.172 c-1.611-1.612-2.499-3.754-2.499-6.033v-11.14c9.308-3.139,16.032-11.946,16.032-22.3c0-12.976-10.557-23.532-23.532-23.532 c-12.975,0-23.532,10.557-23.532,23.532c0,10.354,6.724,19.16,16.032,22.3v11.14c0,6.286,2.448,12.195,6.893,16.64l14.565,14.566 H71.629c-4.705,0-8.532-3.828-8.532-8.532V187.862c0-4.705,3.827-8.532,8.532-8.532h62.054l-19.527,19.527 c-3.154-1.573-6.706-2.463-10.463-2.463c-12.976,0-23.532,10.557-23.532,23.532s10.557,23.532,23.532,23.532 c12.975,0,23.532-10.557,23.532-23.532c0-3.757-0.89-7.309-2.462-10.463l30.134-30.134h29.474v16.549 c0,8.556,6.96,15.516,15.516,15.516h40.597V236.476z M176.354,243.976c0,4.705-3.827,8.532-8.532,8.532s-8.532-3.828-8.532-8.532 c0-4.704,3.827-8.532,8.532-8.532S176.354,239.27,176.354,243.976z M176.354,308.104c0,4.705-3.827,8.532-8.532,8.532 s-8.532-3.828-8.532-8.532c0-4.705,3.827-8.532,8.532-8.532S176.354,303.399,176.354,308.104z M103.693,292.589 c-4.705,0-8.532-3.828-8.532-8.532c0-4.704,3.827-8.532,8.532-8.532c4.705,0,8.532,3.828,8.532,8.532 C112.225,288.76,108.398,292.589,103.693,292.589z M112.226,219.926c0,4.705-3.827,8.532-8.532,8.532 c-4.705,0-8.532-3.828-8.532-8.532s3.827-8.532,8.532-8.532C108.399,211.395,112.226,215.223,112.226,219.926z"></path></g></g><g><g><path d="M344.177,180.362h-56.113c-4.143,0-7.5,3.358-7.5,7.5c0,4.142,3.358,7.5,7.5,7.5h56.113c4.143,0,7.5-3.358,7.5-7.5 C351.677,183.721,348.32,180.362,344.177,180.362z"></path></g></g><g><g><path d="M376.242,212.426h-88.178c-4.143,0-7.5,3.358-7.5,7.5c0,4.142,3.357,7.5,7.5,7.5h88.178c4.143,0,7.5-3.358,7.5-7.5 C383.742,215.784,380.385,212.426,376.242,212.426z"></path></g></g></svg>